<?xml version="1.0" encoding="UTF-8" standalone="no"?>
<!DOCTYPE svg PUBLIC "-//W3C//DTD SVG 1.1//EN" "http://www.w3.org/Graphics/SVG/1.1/DTD/svg11.dtd">
<svg width="100%" height="100%" viewBox="0 0 512 512" version="1.1" xmlns="http://www.w3.org/2000/svg" xmlns:xlink="http://www.w3.org/1999/xlink" xml:space="preserve" xmlns:serif="http://www.serif.com/" style="fill-rule:evenodd;clip-rule:evenodd;stroke-linejoin:round;stroke-miterlimit:2;">
    <g transform="matrix(0.794057,0,0,1,40.0324,0)">
        <g>
            <path d="M258.669,138.155L239.299,9.088C238.531,3.84 234.029,0 228.76,0L228.397,0C222.978,0.171 218.562,4.373 218.136,9.771L208.792,121.835C208.216,128.747 195.949,128.747 195.373,121.835L186.051,9.771C185.581,4.245 180.973,0 175.427,0C169.88,0 165.251,4.245 164.803,9.771L155.459,121.835C154.883,128.747 142.616,128.747 142.04,121.835L132.717,9.771C132.269,4.395 127.853,0.192 122.434,0L122.093,0C116.824,0 112.322,3.84 111.554,9.088L92.205,138.155C86.509,175.979 107.032,212.16 141.634,227.243L125.165,458.07C124.184,471.958 129.048,485.761 138.541,495.958C148.013,506.155 161.432,512 175.384,512L175.469,512C189.4,512 202.84,506.155 212.333,495.957C221.826,485.76 226.69,471.957 225.709,458.069L209.24,227.243C243.843,212.16 264.365,175.979 258.669,138.155Z" style="fill-rule:nonzero;"/>
        </g>
    </g>
    <g transform="matrix(-0.893628,-1.09438e-16,1.22465e-16,-1,631.984,512)">
        <g>
            <path d="M416.237,1.963C413.421,-0.042 409.794,-0.512 406.53,0.619C405.613,0.939 314.093,34.56 314.093,138.667C314.093,213.611 338.477,251.456 352.194,266.816L338.541,280.469C336.792,282.218 335.704,284.501 335.469,286.954L318.594,455.722C317.143,470.079 321.858,484.458 331.543,495.167C341.229,505.877 355.117,512 369.539,512C397.763,512 420.739,489.024 420.739,460.8L420.739,10.667C420.76,7.189 419.075,3.968 416.237,1.963Z" style="fill-rule:nonzero;"/>
        </g>
    </g>
</svg>
